<svg  xmlns="http://www.w3.org/2000/svg" xmlns:xlink="http://www.w3.org/1999/xlink" width="990" height="300" viewBox="0 0 1014 324"><path transform="translate(0 100)" d="M53.9,-33.4L53.9,-60L81.1,-60L81.1,-33.4L53.9,-33.4ZM18.4,-33.4L18.4,-60L45.6,-60L45.6,-33.4L18.4,-33.4ZM84.5,-67.5L80.1,-62.9L53.9,-62.9L53.9,-80C56.5,-80.4 57.3,-81.5 57.6,-82.9L45.6,-84.2L45.6,-62.9L19.2,-62.9L10.2,-66.8L10.2,-20.9L11.5,-20.9C14.9,-20.9 18.4,-22.9 18.4,-23.7L18.4,-30.5L45.6,-30.5L45.6,8.1L47.2,8.1C50.3,8.1 53.9,6 53.9,4.9L53.9,-30.5L81.1,-30.5L81.1,-22.2L82.5,-22.2C85.3,-22.2 89.4,-23.9 89.5,-24.6L89.5,-58.4C91.5,-58.8 93.1,-59.7 93.7,-60.5L84.5,-67.5Z"></path><path transform="translate(100 100)" d="M39.3,-83.2C44.3,-78.8 50.1,-71.6 51.6,-65.5C60.3,-59.8 66.3,-77.6 40.2,-84L39.3,-83.2ZM68.8,-59.1C65.7,-45.1 59.8,-32.8 50.4,-22.2C39.8,-31.6 31.7,-43.8 27.3,-59.1L68.8,-59.1ZM93,-59.1C94.4,-59.1 95.4,-59.6 95.7,-60.7C91.9,-64.4 85.5,-69.4 85.5,-69.4L79.8,-62.1L4.5,-62.1L5.3,-59.1L25.2,-59.1C29.1,-41.7 36,-27.9 45.7,-17.2C35.3,-7.3 21.5,0.8 3.8,6.7L4.5,8.2C23.8,3.6 38.8,-3.4 50.3,-12.7C60.4,-3.3 72.9,3.5 87.8,8C89.4,4 92.5,1.5 96.6,1.1L96.9,-0C81.4,-3.6 67.4,-9.3 56,-17.7C67.4,-28.9 74.6,-42.8 78.8,-59.1L93,-59.1Z"></path><path transform="translate(200 100)" d="M39.6,-69.6C38.9,-63.1 37.7,-55.8 35.9,-48.3C32.4,-52.8 27.7,-57.6 22,-62.3L20.8,-61.4C26.3,-55.6 30.7,-48.2 34,-40.8C30.8,-29 26,-17.2 19.7,-7.9L21,-6.9C28.1,-14.1 33.6,-23.1 37.7,-32.4C39.7,-27.4 41.3,-22.5 42.6,-18.7C48.1,-13.9 51.1,-24.9 41.1,-41C44.2,-49.5 46.3,-57.8 47.8,-64.9C50.5,-65 51.4,-65.7 51.8,-67.1L39.6,-69.6ZM67.7,-69.6C66.8,-63 65.4,-55.7 63.5,-48.2C60.3,-52.7 56.4,-57.5 51.6,-62.4L50.2,-61.5C54.9,-55.5 58.5,-48.3 61.4,-40.8C57.5,-28.1 52,-15.4 44.5,-5.5L45.8,-4.5C53.9,-12.1 60,-21.7 64.7,-31.6C66.9,-24.8 68.5,-18.4 69.6,-13.4C75.3,-7.8 79,-20.6 68.4,-40.2C71.7,-49 74.1,-57.6 75.8,-65C78.5,-65.1 79.3,-65.8 79.7,-67.1L67.7,-69.6ZM84.8,-82.4L80.8,-77.6L18.8,-77.6L10.3,-81.4L10.3,8L11.7,8C15.1,8 18,6 18,4.9L18,-74.6L81.8,-74.6L81.8,-3.3C81.8,-1.6 81.2,-0.7 78.9,-0.7C76.3,-0.7 63.1,-1.7 63.1,-1.7L63.1,-0.2C68.9,0.6 71.8,1.6 73.9,2.9C75.6,3.9 76.3,5.7 76.7,8.1C88.1,7.1 89.6,3.4 89.6,-2.5L89.6,-73.1C91.7,-73.5 93.3,-74.4 94,-75.2L84.8,-82.4Z"></path><path transform="translate(300 100)" d="M42.1,-83.4C45.6,-80.4 49,-74.8 49.4,-70.1C57.7,-63.9 65.4,-80.9 43,-84.1L42.1,-83.4ZM82.7,-65.1C81.6,-61.2 79.8,-56.3 78.3,-53.2L79.4,-52.4C83.7,-55.2 89.2,-59.9 92.3,-63.5C94.3,-63.6 95.4,-63.8 96.1,-64.5L87.4,-72.9L82.5,-68L18.3,-68C18.1,-69.7 17.6,-71.5 17,-73.4L15.3,-73.3C15.8,-67.3 11.8,-61.8 8,-59.7C5.4,-58.4 3.7,-55.9 4.6,-53.1C6,-50.1 10.3,-49.7 13.1,-51.7C16.3,-53.8 18.9,-58.3 18.6,-65.1L82.7,-65.1ZM80.6,-28.6L54,-28.6L54,-37.2C56.3,-37.6 57.3,-38.4 57.6,-39.8L57.3,-39.8C63.8,-42.6 70.3,-46.3 75.3,-49.5C77.4,-49.6 78.6,-49.9 79.3,-50.6L70.5,-58.5L65.6,-53.4L21.6,-53.4L22.5,-50.5L64.5,-50.5C61.6,-47.2 57.6,-43.3 53.6,-40.2L45.9,-41L45.9,-28.6L4.5,-28.6L5.4,-25.6L45.9,-25.6L45.9,-3.2C45.9,-1.7 45.3,-1.1 43.4,-1.1C40.9,-1.1 28.3,-2 28.3,-2L28.4,-0.5C33.8,0.2 36.6,1.2 38.5,2.5C40.2,3.7 40.8,5.6 41.1,8.1C52.6,7.1 54,3.5 54,-2.7L54,-25.6L93,-25.6C94.4,-25.6 95.4,-26.1 95.7,-27.2C92,-30.6 86,-35.3 86,-35.3L80.6,-28.6Z"></path><path transform="translate(400 100)" d="M13.7,-83C18.6,-78.1 24.8,-70.2 26.9,-64C35.3,-58.9 40.5,-76 14.7,-83.7L13.7,-83ZM44.5,-19.7C38.5,-16.6 32.6,-13.6 27.5,-11.1L27.5,-52.7C29.5,-53.1 30.7,-53.9 31.1,-54.6L23.6,-60.9L19.8,-56.9L4.2,-56.9L5,-54L19.7,-54L19.7,-11C19.7,-9.2 19.2,-8.4 15.8,-6.6L21.3,2.7C22.2,2.2 23.4,1 24,-0.6C33.1,-7.8 41,-14.8 45.2,-18.5L44.5,-19.7ZM82,-48L69,-48L69,-79.8C71.7,-80.2 72.4,-81.2 72.7,-82.6L60.9,-83.9L60.9,-48L35.3,-48L36.1,-45.1L60.9,-45.1L60.9,7.9L62.5,7.9C65.5,7.9 69,5.9 69,4.8L69,-45.1L94.1,-45.1C95.5,-45.1 96.5,-45.6 96.8,-46.7C93.2,-50.1 87.2,-54.8 87.2,-54.8L82,-48Z"></path><path transform="translate(500 100)" d="M30.7,-78.7C35.2,-76 40.5,-70.7 42.2,-66.1C50.2,-62 54.3,-77.7 31.6,-79.6L30.7,-78.7ZM57.9,-56.9C59.1,-57.1 60.1,-57.8 60.1,-58.9C56.6,-61.4 51,-64.9 51,-64.9L47,-58.4L26.6,-55.6C25.6,-63.7 25.2,-72 25.3,-80.1C27.7,-80.5 28.6,-81.7 28.8,-83L16.9,-84.3C16.9,-74.1 17.5,-64 18.8,-54.5L2.9,-52.3L4.1,-49.6L19.2,-51.7C21.1,-40.1 24.1,-29.3 28.6,-19.8C21.6,-10.3 13.1,-2.7 3.2,3.8L4.2,5.4C14.8,0.1 23.8,-6.3 31.4,-14.3C35,-8.2 39.4,-2.7 44.6,2C49.1,6 55.8,9.6 59.1,6.2C60.3,5 59.9,3 56.7,-1.8L58.8,-17.5L57.5,-17.7C56,-13.7 54,-8.7 52.6,-6.2C51.6,-4.4 50.9,-4.4 49.2,-5.9C44.2,-9.9 40.2,-15 37,-20.8C42.6,-28.1 47.3,-36.5 51.3,-46.2C53.9,-45.9 54.8,-46.4 55.2,-47.5L44.7,-51.7C41.7,-42.6 38,-34.6 33.7,-27.5C30.5,-35.2 28.3,-43.8 27,-52.7L57.9,-56.9ZM71.4,-71.6C73.9,-71.9 74.8,-73 75,-74.4L63.8,-75.5L63.8,-13L65.2,-13C68.1,-13 71.4,-14.7 71.4,-15.4L71.4,-71.6ZM83.5,-82.4L83.5,-3.7C83.5,-2.2 82.9,-1.5 81,-1.5C78.8,-1.5 67.8,-2.3 67.8,-2.3L67.8,-0.8C72.7,-0.1 75.2,0.9 76.9,2.2C78.4,3.6 78.9,5.5 79.3,8.1C90.1,7 91.4,3.3 91.4,-3L91.4,-78.4C93.9,-78.7 94.8,-79.7 95,-81.1L83.5,-82.4Z"></path><path transform="translate(0 200)" d="M55.5,-68.5L58.6,-53.8L63.9,-53.8L63.2,-73.3L3.1,-73.3L2.2,-53.8L7.7,-53.8L10.7,-68.5L27.9,-68.5C28.1,-58.9 28.1,-49.1 28.1,-39.3L28.1,-33.9C28.1,-24.1 28.1,-14.5 27.9,-5L16.6,-3.8L16.6,-0L49.6,-0L49.6,-3.8L38.3,-5C38.1,-14.6 38.1,-24.3 38.1,-33.9L38.1,-39.3C38.1,-49.1 38.1,-58.9 38.3,-68.5L55.5,-68.5Z"></path><path transform="translate(66 200)" d="M55,-4.6C54.9,-10.1 54.8,-17.7 54.8,-23L54.8,-33.4C54.8,-47.7 50,-53.4 40.7,-53.4C33.6,-53.4 26.2,-49.3 20.7,-43.1L20.7,-64.6L21,-80.2L19.6,-81L3,-76.4L3,-73.1L11.9,-72.3L11.9,-23C11.9,-17.9 11.8,-10.2 11.7,-4.6L3.5,-3.4L3.5,-0L28.7,-0L28.7,-3.4L21.1,-4.6C21,-10.2 20.9,-17.9 20.9,-23L20.9,-39.2C26.9,-44.7 31.6,-46.5 36.6,-46.5C42.8,-46.5 45.8,-43.3 45.8,-33.2L45.8,-23C45.8,-17.7 45.7,-10.1 45.6,-4.6L37.4,-3.4L37.4,-0L62.6,-0L62.6,-3.4L55,-4.6Z"></path><path transform="translate(132 200)" d="M14.6,-30.6C15.7,-43.6 22.8,-49.2 29.5,-49.2C36.6,-49.2 41.6,-43.3 41.6,-36.5C41.6,-32.9 40.5,-30.4 35.7,-30.4L14.6,-30.6ZM49.7,-26.4C50.2,-27.9 50.5,-30 50.5,-32.5C50.5,-45.4 41.8,-53.4 30,-53.4C16.5,-53.4 4.9,-42.5 4.9,-25.6C4.9,-8.5 14.9,1.4 29.6,1.4C39.3,1.4 46.3,-3.4 50.3,-11.1L48.1,-12.6C44.2,-7.9 39.9,-4.7 32.7,-4.7C22,-4.7 14.7,-12 14.5,-26.5L49.7,-26.4Z"></path><path transform="translate(188 200)" d=""></path><path transform="translate(214 200)" d="M32.5,-69C45.6,-69 51.5,-62.7 51.5,-51.6C51.5,-41 46,-33.7 32.3,-33.7L25.3,-33.7L25.3,-39.3C25.3,-49.3 25.3,-59.3 25.5,-69L32.5,-69ZM31.1,-29.3C53.2,-29.3 61.8,-39.4 61.8,-51.6C61.8,-64.6 52.7,-73.3 34.3,-73.3L4.9,-73.3L4.9,-69.5L15.1,-68.4C15.3,-58.8 15.3,-49.1 15.3,-39.3L15.3,-33.9C15.3,-24.1 15.3,-14.5 15.1,-4.9L4.9,-3.8L4.9,-0L35.9,-0L35.9,-3.8L25.5,-5C25.3,-13.3 25.3,-21.2 25.3,-29.3L31.1,-29.3Z"></path><path transform="translate(277 200)" d="M20.6,-52.3L19.1,-53.3L3.7,-47.3L3.7,-44L12.4,-43.1C12.6,-38.7 12.7,-34.9 12.7,-28.7L12.7,-23C12.7,-17.9 12.6,-10.1 12.5,-4.6L4.5,-3.4L4.5,-0L31.1,-0L31.1,-3.4L22,-4.7C21.9,-10.3 21.8,-17.9 21.8,-23L21.8,-31.6C23.9,-38.3 26.8,-42.8 31.3,-46.1L32.6,-44.9C34.7,-43 36.8,-41.8 39.4,-41.8C43.8,-41.8 45.6,-44.7 45.6,-49.3C44.3,-51.9 41.1,-53.4 37.7,-53.4C31.6,-53.4 25.3,-48.1 21.7,-39.1L20.6,-52.3Z"></path><path transform="translate(322 200)" d="M30,1.4C42.8,1.4 55.2,-7.7 55.2,-25.8C55.2,-44 42.7,-53.4 30,-53.4C17.2,-53.4 4.9,-43.9 4.9,-25.8C4.9,-7.8 17.1,1.4 30,1.4ZM30,-2.8C20.4,-2.8 14.9,-10.7 14.9,-25.8C14.9,-41 20.4,-49.2 30,-49.2C39.5,-49.2 45.1,-41 45.1,-25.8C45.1,-10.7 39.5,-2.8 30,-2.8Z"></path><path transform="translate(382 200)" d="M3.3,-47.4L3.3,-44.1L11.9,-43.3C12.2,-38.7 12.3,-34.8 12.3,-28.7L12.3,-11C12.3,5.4 11.8,14.7 9.9,19.4C9.3,20.7 8.6,21.7 7.9,22.4L5.3,20.3C2.5,18 0.2,17 -2.6,17C-5.8,17 -8.1,18.5 -9,21.4C-8.8,24.1 -5.8,27.3 0.9,27.3C7.1,27.3 11,25.1 14.6,21C20.1,14.9 20.9,7.2 20.9,-11.2L20.9,-37.7L21.2,-52.3L19.8,-53.3L3.3,-47.4ZM16.6,-79.4C12.7,-79.4 9.6,-76.7 9.6,-72.7C9.6,-68.8 12.7,-65.9 16.6,-65.9C20.5,-65.9 23.7,-68.8 23.7,-72.7C23.7,-76.7 20.5,-79.4 16.6,-79.4Z"></path><path transform="translate(413 200)" d="M14.6,-30.6C15.7,-43.6 22.8,-49.2 29.5,-49.2C36.6,-49.2 41.6,-43.3 41.6,-36.5C41.6,-32.9 40.5,-30.4 35.7,-30.4L14.6,-30.6ZM49.7,-26.4C50.2,-27.9 50.5,-30 50.5,-32.5C50.5,-45.4 41.8,-53.4 30,-53.4C16.5,-53.4 4.9,-42.5 4.9,-25.6C4.9,-8.5 14.9,1.4 29.6,1.4C39.3,1.4 46.3,-3.4 50.3,-11.1L48.1,-12.6C44.2,-7.9 39.9,-4.7 32.7,-4.7C22,-4.7 14.7,-12 14.5,-26.5L49.7,-26.4Z"></path><path transform="translate(469 200)" d="M47.4,-13C43.9,-7.8 38.4,-4.7 32.1,-4.7C21.6,-4.7 14,-12.7 14,-26.8C14,-41 20.8,-49.2 30.8,-49.2C32.5,-49.2 34.6,-48.9 36.7,-48.2L38.8,-40.5C39.4,-37.4 41.1,-35.4 44.6,-35.4C47.2,-35.4 48.8,-36.7 49.4,-39.4C47.9,-47.5 39.9,-53.4 30.2,-53.4C16.9,-53.4 4.6,-43.1 4.6,-25.8C4.6,-9.1 14.5,1.4 29.3,1.4C39.5,1.4 46.4,-3.5 49.6,-12L47.4,-13Z"></path><path transform="translate(522 200)" d="M33.2,-6.7C30.3,-4.6 28.3,-3.6 25.7,-3.6C21.8,-3.6 19.4,-6 19.4,-11.8L19.4,-47.1L34.2,-47.1L34.2,-51.9L19.5,-51.9L20.1,-67L13.8,-67L10.9,-52.2L1.1,-51L1.1,-47.1L10.4,-47.1L10.4,-20.5C10.4,-16.4 10.3,-14 10.3,-11.4C10.3,-2.6 14.9,1.4 22.7,1.4C28.3,1.4 32.6,-0.7 35.4,-4.2L33.2,-6.7Z"></path><path transform="translate(558 200)" d=""></path><path transform="translate(584 200)" d="M51.6,-68.5L54.5,-54L59.9,-54L59.3,-73.3L4.9,-73.3L4.9,-69.5L15.1,-68.4C15.3,-58.8 15.3,-49.1 15.3,-39.3L15.3,-33.9C15.3,-24.1 15.3,-14.5 15.1,-4.9L4.9,-3.8L4.9,-0L35.9,-0L35.9,-3.8L25.5,-5C25.3,-14.6 25.3,-24.4 25.3,-35.1L42.6,-35.1L44,-23.7L48.6,-23.7L48.6,-50.3L44,-50.3L42.6,-39.5L25.3,-39.5C25.3,-49.4 25.3,-59 25.5,-68.5L51.6,-68.5Z"></path><path transform="translate(642 200)" d="M30,1.4C42.8,1.4 55.2,-7.7 55.2,-25.8C55.2,-44 42.7,-53.4 30,-53.4C17.2,-53.4 4.9,-43.9 4.9,-25.8C4.9,-7.8 17.1,1.4 30,1.4ZM30,-2.8C20.4,-2.8 14.9,-10.7 14.9,-25.8C14.9,-41 20.4,-49.2 30,-49.2C39.5,-49.2 45.1,-41 45.1,-25.8C45.1,-10.7 39.5,-2.8 30,-2.8Z"></path><path transform="translate(702 200)" d="M20.6,-52.3L19.1,-53.3L3.7,-47.3L3.7,-44L12.4,-43.1C12.6,-38.7 12.7,-34.9 12.7,-28.7L12.7,-23C12.7,-17.9 12.6,-10.1 12.5,-4.6L4.5,-3.4L4.5,-0L31.1,-0L31.1,-3.4L22,-4.7C21.9,-10.3 21.8,-17.9 21.8,-23L21.8,-31.6C23.9,-38.3 26.8,-42.8 31.3,-46.1L32.6,-44.9C34.7,-43 36.8,-41.8 39.4,-41.8C43.8,-41.8 45.6,-44.7 45.6,-49.3C44.3,-51.9 41.1,-53.4 37.7,-53.4C31.6,-53.4 25.3,-48.1 21.7,-39.1L20.6,-52.3Z"></path><path transform="translate(748 200)" d=""></path><path transform="translate(774 200)" d="M104.4,-73.3L79.5,-73.3L79.5,-69.5L89.8,-68.1L75.7,-15.4L59,-68.2L70.2,-69.5L70.2,-73.3L40.8,-73.3L40.8,-69.5L51.8,-68.3L34.9,-15.7L20.7,-68.3L31,-69.5L31,-73.3L1.5,-73.3L1.5,-69.5L10.5,-68.5L30.3,0.7L34.8,0.7L52.9,-57.3L71.8,0.7L76.4,0.7L95,-68.3L104.4,-69.5L104.4,-73.3Z"></path><path transform="translate(872 200)" d="M14.6,-30.6C15.7,-43.6 22.8,-49.2 29.5,-49.2C36.6,-49.2 41.6,-43.3 41.6,-36.5C41.6,-32.9 40.5,-30.4 35.7,-30.4L14.6,-30.6ZM49.7,-26.4C50.2,-27.9 50.5,-30 50.5,-32.5C50.5,-45.4 41.8,-53.4 30,-53.4C16.5,-53.4 4.9,-42.5 4.9,-25.6C4.9,-8.5 14.9,1.4 29.6,1.4C39.3,1.4 46.3,-3.4 50.3,-11.1L48.1,-12.6C44.2,-7.9 39.9,-4.7 32.7,-4.7C22,-4.7 14.7,-12 14.5,-26.5L49.7,-26.4Z"></path><path transform="translate(927 200)" d="M20.9,-41.6C26.9,-47.1 31.1,-47.9 34.5,-47.9C42.9,-47.9 48.9,-40.4 48.9,-25.7C48.9,-10.4 41.9,-4.2 34.1,-4.2C29.9,-4.2 25.4,-5.9 20.9,-10.2L20.9,-41.6ZM20.7,-64.6L21,-80.2L19.6,-81L3,-76.4L3,-73.1L11.9,-72.2L11.9,-23C11.9,-17.9 11.8,-10.2 11.7,-4.6L3.5,-3.4L3.5,-0L19.8,1.1L20.7,-6.4C25.6,-0.3 31.1,1.4 36.1,1.4C49.3,1.4 58.5,-10 58.5,-26.5C58.5,-43.4 49.4,-53.4 37.6,-53.4C31.8,-53.4 25.9,-50.9 20.7,-45.2L20.7,-64.6Z"></path></svg>